<svg width="44" height="44" viewBox="0 0 44 44" fill="none" xmlns="http://www.w3.org/2000/svg">
<rect width="44" height="44" fill="#F5F5F5"/>
<g id="Main / Desktop" clip-path="url(#clip0_0_1)">
<rect width="1440" height="1929" transform="translate(-111 -349)" fill="white"/>
<g id="BG">
<path id="BG_2" d="M-111 -349H321C321 -349 416.153 -206.559 493.5 -139.047C641.447 -9.91272 730.132 31.2146 937.5 31.2146C1090.39 31.2146 1329 31.2146 1329 31.2146V470C1329 470 890.464 390.582 609 390.582C327.536 390.582 -111 470 -111 470V-349Z" fill="url(#paint0_linear_0_1)"/>
</g>
<g id="cards">
<g id="Frame 4">
<g id="Group 3">
<rect id="Rectangle 31" x="-25.5" y="-25.5" width="237" height="217" rx="15.5" fill="white" stroke="#E7E7ED"/>
<g id="card">
<g id="Frame 3">
<rect id="Rectangle 30" x="-6" y="-6" width="56" height="56" rx="10" fill="#F8F8F8"/>
</g>
</g>
<g id="Group 9">
<path id="Union" fill-rule="evenodd" clip-rule="evenodd" d="M4 0C1.79086 0 0 1.79086 0 4V23.6279C0 25.837 1.79086 27.6279 4 27.6279H16.3721V40C16.3721 42.2091 18.163 44 20.3721 44H40C42.2091 44 44 42.2091 44 40V20.3721C44 18.163 42.2091 16.3721 40 16.3721H27.6279V4C27.6279 1.79086 25.837 0 23.6279 0H4Z" fill="#FF5F38"/>
<circle id="Ellipse 1" cx="19.4422" cy="25.5814" r="1.02326" fill="white"/>
<circle id="Ellipse 2" cx="22.5115" cy="22.5116" r="1.02326" fill="white"/>
<circle id="Ellipse 3" cx="25.5819" cy="19.4419" r="1.02326" fill="white"/>
<path id="Arrow 1" d="M8.71685 7.65572C8.42396 7.36283 7.94909 7.36283 7.65619 7.65572C7.3633 7.94861 7.3633 8.42349 7.65619 8.71638L8.71685 7.65572ZM18.3162 19.0658C18.7305 19.0658 19.0662 18.73 19.0662 18.3158L19.0662 11.5658C19.0662 11.1516 18.7305 10.8158 18.3162 10.8158C17.902 10.8158 17.5662 11.1516 17.5662 11.5658V17.5658H11.5662C11.152 17.5658 10.8162 17.9016 10.8162 18.3158C10.8162 18.73 11.152 19.0658 11.5662 19.0658L18.3162 19.0658ZM7.65619 8.71638L17.7859 18.8461L18.8466 17.7854L8.71685 7.65572L7.65619 8.71638Z" fill="white"/>
<path id="Arrow 2" d="M36.204 37.2647C36.4969 37.5576 36.9718 37.5576 37.2647 37.2647C37.5576 36.9718 37.5576 36.4969 37.2647 36.204L36.204 37.2647ZM26.6047 25.8546C26.1904 25.8546 25.8547 26.1904 25.8547 26.6046L25.8547 33.3546C25.8547 33.7689 26.1904 34.1046 26.6047 34.1046C27.0189 34.1046 27.3547 33.7689 27.3547 33.3546V27.3546H33.3547C33.7689 27.3546 34.1047 27.0189 34.1047 26.6046C34.1047 26.1904 33.7689 25.8546 33.3547 25.8546L26.6047 25.8546ZM37.2647 36.204L27.135 26.0743L26.0743 27.135L36.204 37.2647L37.2647 36.204Z" fill="white"/>
</g>
</g>
</g>
</g>
</g>
<defs>
<linearGradient id="paint0_linear_0_1" x1="444" y1="470" x2="608.36" y2="-19.1225" gradientUnits="userSpaceOnUse">
<stop stop-color="#CBFAFF"/>
<stop offset="1" stop-color="#CBFAFF" stop-opacity="0"/>
</linearGradient>
<clipPath id="clip0_0_1">
<rect width="1440" height="1929" fill="white" transform="translate(-111 -349)"/>
</clipPath>
</defs>
</svg>
